<svg id="visual" viewBox="0 0 960 100" width="960" height="100" xmlns="http://www.w3.org/2000/svg" xmlns:xlink="http://www.w3.org/1999/xlink" version="1.1"><path d="M0 37L10 34.7C20 32.3 40 27.7 60 22.8C80 18 100 13 120 15.3C140 17.7 160 27.3 180 30.2C200 33 220 29 240 25.2C260 21.3 280 17.7 300 24C320 30.3 340 46.7 360 48.8C380 51 400 39 420 40.5C440 42 460 57 480 57.8C500 58.7 520 45.3 540 37C560 28.7 580 25.3 600 28.2C620 31 640 40 660 44.3C680 48.7 700 48.3 720 46.5C740 44.7 760 41.3 780 38.8C800 36.3 820 34.7 840 29.8C860 25 880 17 900 19.3C920 21.7 940 34.3 950 40.7L960 47L960 101L950 101C940 101 920 101 900 101C880 101 860 101 840 101C820 101 800 101 780 101C760 101 740 101 720 101C700 101 680 101 660 101C640 101 620 101 600 101C580 101 560 101 540 101C520 101 500 101 480 101C460 101 440 101 420 101C400 101 380 101 360 101C340 101 320 101 300 101C280 101 260 101 240 101C220 101 200 101 180 101C160 101 140 101 120 101C100 101 80 101 60 101C40 101 20 101 10 101L0 101Z" fill="#f82aff"></path><path d="M0 42L10 47.8C20 53.7 40 65.3 60 69.5C80 73.7 100 70.3 120 70.2C140 70 160 73 180 72.5C200 72 220 68 240 61.3C260 54.7 280 45.3 300 39.2C320 33 340 30 360 31C380 32 400 37 420 42.8C440 48.7 460 55.3 480 60.8C500 66.3 520 70.7 540 72C560 73.3 580 71.7 600 66.7C620 61.7 640 53.3 660 48.2C680 43 700 41 720 46.3C740 51.7 760 64.3 780 69.3C800 74.3 820 71.7 840 64.2C860 56.7 880 44.3 900 44C920 43.7 940 55.3 950 61.2L960 67L960 101L950 101C940 101 920 101 900 101C880 101 860 101 840 101C820 101 800 101 780 101C760 101 740 101 720 101C700 101 680 101 660 101C640 101 620 101 600 101C580 101 560 101 540 101C520 101 500 101 480 101C460 101 440 101 420 101C400 101 380 101 360 101C340 101 320 101 300 101C280 101 260 101 240 101C220 101 200 101 180 101C160 101 140 101 120 101C100 101 80 101 60 101C40 101 20 101 10 101L0 101Z" fill="#c921e2"></path><path d="M0 81L10 81.2C20 81.3 40 81.7 60 79.8C80 78 100 74 120 68.7C140 63.3 160 56.7 180 57C200 57.3 220 64.7 240 65.7C260 66.7 280 61.3 300 62.8C320 64.3 340 72.7 360 74.5C380 76.3 400 71.7 420 65.2C440 58.7 460 50.3 480 48C500 45.7 520 49.3 540 49.5C560 49.7 580 46.3 600 50.5C620 54.7 640 66.3 660 68.2C680 70 700 62 720 59.5C740 57 760 60 780 58.8C800 57.7 820 52.3 840 55.5C860 58.7 880 70.3 900 76C920 81.7 940 81.3 950 81.2L960 81L960 101L950 101C940 101 920 101 900 101C880 101 860 101 840 101C820 101 800 101 780 101C760 101 740 101 720 101C700 101 680 101 660 101C640 101 620 101 600 101C580 101 560 101 540 101C520 101 500 101 480 101C460 101 440 101 420 101C400 101 380 101 360 101C340 101 320 101 300 101C280 101 260 101 240 101C220 101 200 101 180 101C160 101 140 101 120 101C100 101 80 101 60 101C40 101 20 101 10 101L0 101Z" fill="#9c16c3"></path><path d="M0 71L10 73.3C20 75.7 40 80.3 60 83C80 85.7 100 86.3 120 83.7C140 81 160 75 180 71.8C200 68.7 220 68.3 240 67.8C260 67.3 280 66.7 300 69.3C320 72 340 78 360 82.2C380 86.3 400 88.7 420 88.3C440 88 460 85 480 79.3C500 73.7 520 65.3 540 62.3C560 59.3 580 61.7 600 67C620 72.3 640 80.7 660 84.7C680 88.7 700 88.3 720 87C740 85.7 760 83.3 780 78.2C800 73 820 65 840 66.5C860 68 880 79 900 82.2C920 85.3 940 80.7 950 78.3L960 76L960 101L950 101C940 101 920 101 900 101C880 101 860 101 840 101C820 101 800 101 780 101C760 101 740 101 720 101C700 101 680 101 660 101C640 101 620 101 600 101C580 101 560 101 540 101C520 101 500 101 480 101C460 101 440 101 420 101C400 101 380 101 360 101C340 101 320 101 300 101C280 101 260 101 240 101C220 101 200 101 180 101C160 101 140 101 120 101C100 101 80 101 60 101C40 101 20 101 10 101L0 101Z" fill="#720aa3"></path><path d="M0 73L10 73.7C20 74.3 40 75.7 60 78.5C80 81.3 100 85.7 120 86.2C140 86.7 160 83.3 180 81.5C200 79.7 220 79.3 240 80.5C260 81.7 280 84.3 300 85.7C320 87 340 87 360 87.3C380 87.7 400 88.3 420 87.2C440 86 460 83 480 80.3C500 77.7 520 75.3 540 74C560 72.7 580 72.3 600 75.8C620 79.3 640 86.7 660 86.8C680 87 700 80 720 77.2C740 74.3 760 75.7 780 75.8C800 76 820 75 840 78C860 81 880 88 900 90.8C920 93.7 940 92.3 950 91.7L960 91L960 101L950 101C940 101 920 101 900 101C880 101 860 101 840 101C820 101 800 101 780 101C760 101 740 101 720 101C700 101 680 101 660 101C640 101 620 101 600 101C580 101 560 101 540 101C520 101 500 101 480 101C460 101 440 101 420 101C400 101 380 101 360 101C340 101 320 101 300 101C280 101 260 101 240 101C220 101 200 101 180 101C160 101 140 101 120 101C100 101 80 101 60 101C40 101 20 101 10 101L0 101Z" fill="#4a0083"></path></svg>